# xmcd
#
# Track frame offsets:
#	150
#	14237
#	28432
#	42407
#	55027
#	68362
#	80367
#	93445
#	106787
#	118630
#	131840
#	144200
#	156555
#	168835
#	181337
#	193300
#	205935
#	219020
#	233277
#	246337
#	258350
#	270155
#
# Disc length: 3776 seconds
#
# Revision: 0
# Processed by: cddbd v1.5.1PL0 Copyright (c) Steve Scherf et al.
# Submitted via: dBpowerAMP V4.0
#
DISCID=2d0ebe16
DTITLE=buddy moss - Complete Recordings, Vol. 2: 1933-1934 
DYEAR=1900
DGENRE=blues
TTITLE0=broke down engine no. 2 take 1
TTITLE1=broke down engine no. 2 take 2
TTITLE2=b and o blues no. 2
TTITLE3=some lonesome day take 1
TTITLE4=some lonesome day take 2
TTITLE5=new lovin' blues
TTITLE6=unkind woman
TTITLE7=when the hearse roll me from my door
TTITLE8=insane blues
TTITLE9=tricks ain't walking no more
TTITLE10=stinging bull nettle
TTITLE11=oh lordy mama
TTITLE12=dough rolling papa
TTITLE13=some lonesome day
TTITLE14=misery man blues
TTITLE15=jinx man blues
TTITLE16=evil hearted woman
TTITLE17=too dog gone jealous
TTITLE18=someday baby (i'll have mine)
TTITLE19=love me, baby, love me
TTITLE20=sleepless night
TTITLE21=shake it all night long
EXTD=
EXTT0=
EXTT1=
EXTT2=
EXTT3=
EXTT4=
EXTT5=
EXTT6=
EXTT7=
EXTT8=
EXTT9=
EXTT10=
EXTT11=
EXTT12=
EXTT13=
EXTT14=
EXTT15=
EXTT16=
EXTT17=
EXTT18=
EXTT19=
EXTT20=
EXTT21=
PLAYORDER=
